#!OML:ASF I:\Actors\actors\Patient Classification 2\Patient 1\Session 1\actor1.ASF
:FULLY-SPECIFIED
:DEGREES
531
root -0.535423 18.6694 5.11938 1.8306 -2.82764 -4.66955
lowerback 21.2425 -0.207677 4.37365
upperback 2.33428 1.06893 3.30017
thorax -9.33182 0.405395 0.816818
lowerneck -2.15276 -4.30881 3.15464
upperneck -2.22399 -5.80611 0.192988
head -0.41025 -2.93003 -0.4639
rclavicle -9.93923e-016 -8.74653e-015
rhumerus 11.7707 12.1322 -33.1501
rradius 140.896
rwrist -70.8214
rhand 7.64848 -60.2905
rfingers 7.12502
rthumb 32.8927 -87.3133
lclavicle -9.93923e-016 -8.74653e-015
lhumerus -45.895 -2.85482 89.1619
lradius 57.3532
lwrist 3.89447
lhand -8.91252 -24.8761
lfingers 7.12502
lthumb 17.0306 4.39731
rfemur 0 0 0
rtibia 0
rfoot 0 0
rtoes 0
lfemur -11.6067 1.62608 -9.24106
ltibia 29.2611
lfoot -20.0036 8.53722
ltoes -56.8846
532
root -0.530699 18.6716 5.1048 1.95612 -2.72209 -4.70398
lowerback 21.4595 -0.200927 4.53379
upperback 2.37488 1.12771 3.29812
thorax -9.4005 0.42619 0.70678
lowerneck -2.4023 -4.32885 3.35626
upperneck -2.43436 -5.84654 0.0711051
head -0.444491 -2.95431 -0.536905
rclavicle 1.0138e-014 -2.06736e-014
rhumerus 12.1351 11.661 -32.8875
rradius 140.877
rwrist -70.6637
rhand 7.62959 -60.213
rfingers 7.12502
rthumb 32.8748 -87.2396
lclavicle 1.0138e-014 -2.06736e-014
lhumerus -45.7476 -3.00791 89.13
lradius 57.3268
lwrist 3.8847
lhand -8.87718 -25.0148
lfingers 7.12502
lthumb 17.0647 4.2557
rfemur 0 0 0
rtibia 0
rfoot 0 0
rtoes 0
lfemur -11.8644 1.71082 -9.21284
ltibia 29.3305
lfoot -19.9114 8.41689
ltoes -56.9401
533
root -0.525569 18.6743 5.09214 2.08849 -2.61188 -4.66675
lowerback 21.6472 -0.201346 4.62745
upperback 2.39316 1.16177 3.29943
thorax -9.47956 0.437535 0.645354
lowerneck -2.50936 -4.37402 3.50698
upperneck -2.7629 -5.91509 -0.102588
head -0.539187 -2.99386 -0.612712
rclavicle -1.21259e-014 -3.97569e-015
rhumerus 12.5117 11.2656 -32.5901
rradius 140.789
rwrist -70.2883
rhand 7.8465 -60.1598
rfingers 7.12502
rthumb 33.0811 -87.1428
lclavicle -1.21259e-014 -3.97569e-015
lhumerus -45.6637 -3.08104 89.1331
lradius 57.3312
lwrist 3.9237
lhand -8.80572 -24.9938
lfingers 7.12502
lthumb 17.1334 4.27073
rfemur 0 0 0
rtibia 0
rfoot 0 0
rtoes 0
lfemur -12.1194 1.78025 -9.2701
ltibia 29.3836
lfoot -19.8524 8.30841
ltoes -56.9656
534
root -0.519339 18.6763 5.08126 2.24229 -2.50485 -4.62506
lowerback 21.788 -0.203342 4.72829
upperback 2.38687 1.19594 3.31993
thorax -9.56078 0.448793 0.60104
lowerneck -2.56459 -4.40842 3.54291
upperneck -3.05438 -5.96528 -0.234154
head -0.626208 -3.0227 -0.656311
rclavicle -9.93923e-015 1.43125e-014
rhumerus 12.8501 10.9224 -32.2444
rradius 140.754
rwrist -69.9262
rhand 7.68734 -60.1466
rfingers 7.12502
rthumb 32.9297 -87.1616
lclavicle -9.93923e-015 1.43125e-014
lhumerus -45.6401 -3.14336 89.1972
lradius 57.3575
lwrist 4.02552
lhand -8.87187 -24.8478
lfingers 7.12502
lthumb 17.0698 4.42226
rfemur 0 0 0
rtibia 0
rfoot 0 0
rtoes 0
lfemur -12.3789 1.76348 -9.34121
ltibia 29.4174
lfoot -19.7816 8.28615
ltoes -57.013
535
root -0.513105 18.6784 5.0707 2.37169 -2.42124 -4.62134
lowerback 21.9385 -0.202255 4.83299
upperback 2.40296 1.23656 3.35848
thorax -9.62236 0.463689 0.572202
lowerneck -2.71298 -4.40016 3.56177
upperneck -3.25266 -5.96197 -0.323543
head -0.666414 -3.02356 -0.68785
rclavicle 5.96354e-016 2.38542e-015
rhumerus 13.1824 10.5618 -31.9239
rradius 140.789
rwrist -69.8261
rhand 7.01179 -60.093
rfingers 7.12502
rthumb 32.2869 -87.241
lclavicle 5.96354e-016 2.38542e-015
lhumerus -45.6273 -3.21757 89.2472
lradius 57.4101
lwrist 4.09218
lhand -8.96535 -24.8751
lfingers 7.12502
lthumb 16.9798 4.40273
rfemur 0 0 0
rtibia 0
rfoot 0 0
rtoes 0
lfemur -12.5934 1.72472 -9.37237
ltibia 29.4381
lfoot -19.7072 8.29736
ltoes -57.0378
